<svg xmlns="http://www.w3.org/2000/svg" width="593" height="135" viewBox="0 0 593 135"><path d="M118.83,92.08l-1.82.29-.42,6h36.68l-.42-6-2.24-.29A18.65,18.65,0,0,1,146,91a1.71,1.71,0,0,1-1.12-1.54V54.14q0-11.19-5.32-16.52a17,17,0,0,0-12.32-5.46q-9.66,0-23.52,10.78H103V32.16L73.75,40.42l-.14,4.9,2.1.7c2.52.75,4.16,1.78,4.9,3.08s1.12,4.11,1.12,8.4V89.42c0,1.5-1.58,2.38-4.76,2.66l-2.11.22-3.34-1q-3.22-1-3.22-6.87V.8L37.5,4.16l-.56,4.48,7.14,3.08Q47,13.27,47,18V33.7h-.14a49.34,49.34,0,0,0-8.82-.84q-17.22,0-27.37,10.64T.54,70q0,13.17,7,21.77t18.76,8.61a23.72,23.72,0,0,0,11-2.94,29.88,29.88,0,0,0,9.31-7.28H47v10.36l26.79-2.84-.06.74h37.66l-.42-6-2.66-.29a13,13,0,0,1-4.27-.83,1.82,1.82,0,0,1-1-1.69V49.94a11.94,11.94,0,0,1,3.92-1.89,17.1,17.1,0,0,1,5.18-.91q6,0,8.75,3.36t2.73,13.16V89.42C123.59,91,122,91.9,118.83,92.08ZM47,83.12q-5.19,4.2-9.24,4.21-6.3,0-10.36-6.73T23.36,63.24q0-11.06,3.15-17.22t7.91-6.16q5.46,0,12.6,8.54Z" fill="#ccc"/><path d="M321.13,40.28l.42-6H295.09l.42,6L300.27,42q3.36,1.55,1.54,6.44L291.45,82.14,281.37,47.56c-1-3.08-.51-4.94,1.54-5.6l4.9-1.68.42-6H249.31l.42,6,4.06,1.54q4.2,1.55,5.32,4.62l.28.84L248.75,82.14,238.67,47.56c-1-3.08-.51-4.94,1.54-5.6l4.9-1.68.42-6H192.75l.42,6,5.46,1.82c2.34.84,2.9,2.9,1.68,6.16L189,80.6l-12.74-33c-1.12-3.08-.65-4.94,1.4-5.6l4.9-1.68.42-6H144.31l.42,6,3.64,1.54c2.8,1.12,4.58,2.66,5.32,4.62l24.92,59.08v1.4l-1.54,5.18q-2.94,9.81-6.58,11.07a11.35,11.35,0,0,0-3.57-5,9.2,9.2,0,0,0-6.09-2.17,8.11,8.11,0,0,0-6.44,2.73,9.65,9.65,0,0,0-2.38,6.51,8.55,8.55,0,0,0,3.57,7,13.09,13.09,0,0,0,8.33,2.8q12.89,0,18.9-17.35l9-25.63L209,47.42a12.63,12.63,0,0,1,3.22-5.14,7.57,7.57,0,0,1,3.92,4.16l19.32,53.2h14.84l13.16-41.3,14.7,41.3h14.7l17.78-52.22a8.82,8.82,0,0,1,5.88-5.74Z" fill="#ccc"/><path d="M352.91,32.16q-16,0-26.6,10.08A32.81,32.81,0,0,0,315.67,67q0,14.15,9.1,23.81t24.92,9.65q16.1,0,26.6-9.94a32.54,32.54,0,0,0,10.5-24.64q0-14.28-9.1-24T352.91,32.16Zm7.14,54.53q-3.23,6.8-8.68,6.79A9.27,9.27,0,0,1,344.51,91q-3.22-3.21-4.27-9.59a113.89,113.89,0,0,1-1.05-17.57q0-11.19,3.15-17.78T351,39.44a8.37,8.37,0,0,1,6.58,3.08q5.75,5.74,5.74,26.6Q363.27,79.91,360.05,86.69Z" fill="#ccc"/><path d="M443.91,51.27a11.06,11.06,0,0,0,2.66-7.35q0-5.6-3.15-8.68a11.42,11.42,0,0,0-8.33-3.08,12.92,12.92,0,0,0-9.66,4.48,66.23,66.23,0,0,0-8.82,12.74h-.7V32.16l-29.26,8.26-.14,4.9,2.1.7q3.78,1.13,4.9,3.08c.74,1.31,1.12,4.11,1.12,8.4V89.42c0,1.5-1.59,2.38-4.76,2.66l-2.52.29-.42,6h38.78l-.42-6-4.06-.29a12.94,12.94,0,0,1-4.27-.83,1.82,1.82,0,0,1-1-1.69V58.62A45.64,45.64,0,0,1,426.83,48q3.63,6.45,10.5,6.44A8.28,8.28,0,0,0,443.91,51.27Z" fill="#ccc"/><path d="M560.74,65.21A39.87,39.87,0,0,0,554,61.28q-3.15-1.39-8.33-3.22a10.17,10.17,0,0,1-1.54-.56l-6-2.1a27.29,27.29,0,0,1-3.57-1.82,6.82,6.82,0,0,1-3.08-2.87,9,9,0,0,1-.63-3.57,6.77,6.77,0,0,1,2.73-5.53,11.75,11.75,0,0,1,7.49-2.17,20,20,0,0,1,9,2.24l4.76,12.88h10.78L565,33l-8,1.4a55.25,55.25,0,0,0-16.24-2.24q-12.46,0-19.81,5.6a17.75,17.75,0,0,0-7.35,14.84q0,8.82,5.18,13.16t15.4,8l3.36,1.12c1.68.55,2.82.95,3.43,1.18s1.54.63,2.8,1.2a19.34,19.34,0,0,1,2.73,1.39,20.16,20.16,0,0,1,1.89,1.48,5,5,0,0,1,1.47,2,6.08,6.08,0,0,1,.42,2.3,7.83,7.83,0,0,1-3.15,6.51c-2.1,1.64-5.07,2.45-8.89,2.45q-3.22,0-9.94-2.24l-3.64-13h-11.9l.41,13.67a12.73,12.73,0,0,1-3.77-1.83,16.34,16.34,0,0,1-3.36-4L488.71,56.24l1-1Q503.82,43.08,510,41.4l3.78-1,.42-6.16h-34l.42,6.16.84.14q4.62,1,4.62,4.62a7.19,7.19,0,0,1-.84,3.22,20.1,20.1,0,0,1-3.5,4.41c-1.78,1.82-3.29,3.32-4.55,4.48s-3.57,3.25-6.93,6.23l-1.54,1.4V.8l-29.26,9.52L439,14.94l5.18,2.8a7,7,0,0,1,3.22,6.3V89.42c0,1.5-1.59,2.38-4.76,2.66l-2.8.29-.42,6h36.26l-.42-6-2-.29a13.13,13.13,0,0,1-3.71-.91,1.67,1.67,0,0,1-.91-1.61V73.18l5-4.89,8.82,17.5,5.6,12.59h27.3l-.07-.93q8.91,3,22.19,3,14.13,0,22.12-5.88t8-15.26A18.58,18.58,0,0,0,566,71.22,15.59,15.59,0,0,0,560.74,65.21Z" fill="#ccc"/><path d="M588.81,79.55a12.17,12.17,0,0,0-17.43-.07,12.14,12.14,0,0,0-3.57,8.82,12.32,12.32,0,1,0,24.63,0A12.11,12.11,0,0,0,588.81,79.55Z" fill="#ccc"/></svg>