<svg xmlns="http://www.w3.org/2000/svg" xmlns:xlink="http://www.w3.org/1999/xlink" width="80" height="80" viewBox="0 0 80 80"><defs><clipPath id="b"><rect width="80" height="80"/></clipPath></defs><g id="a" clip-path="url(#b)"><rect width="80" height="80" fill="#fff"/><g transform="translate(0 1.071)"><path d="M47.936,8a39.9,39.9,0,0,0-12.6,77.779c2,.366,2.727-.865,2.727-1.929V77.2c-11.107,2.394-13.3-5.354-13.3-5.354a10.674,10.674,0,0,0-4.423-5.853c-3.625-2.461.266-2.427.266-2.427A8.48,8.48,0,0,1,26.72,67.69a8.513,8.513,0,0,0,11.605,3.325,8.613,8.613,0,0,1,2.527-5.354c-8.845-1-18.189-4.423-18.189-19.719a15.4,15.4,0,0,1,4.123-10.708,14.232,14.232,0,0,1,.2-10.608s3.325-1.1,10.974,4.09a37.177,37.177,0,0,1,19.952,0c7.648-5.254,10.974-4.09,10.974-4.09a14.232,14.232,0,0,1,.4,10.541,15.4,15.4,0,0,1,4.09,10.708c0,15.33-9.311,18.722-18.189,19.686a9.577,9.577,0,0,1,2.727,7.349v10.94c0,1.33.7,2.294,2.727,1.929A39.9,39.9,0,0,0,47.936,8Z" transform="translate(-7.986 -8)" fill-rule="evenodd" opacity="0"/><path d="M47.936,8a39.9,39.9,0,0,0-12.6,77.779c2,.366,2.727-.865,2.727-1.929V77.2c-11.107,2.394-13.3-5.354-13.3-5.354a10.674,10.674,0,0,0-4.423-5.853c-3.625-2.461.266-2.427.266-2.427A8.48,8.48,0,0,1,26.72,67.69a8.513,8.513,0,0,0,11.605,3.325,8.613,8.613,0,0,1,2.527-5.354c-8.845-1-18.189-4.423-18.189-19.719a15.4,15.4,0,0,1,4.123-10.708,14.232,14.232,0,0,1,.2-10.608s3.325-1.1,10.974,4.09a37.177,37.177,0,0,1,19.952,0c7.648-5.254,10.974-4.09,10.974-4.09a14.232,14.232,0,0,1,.4,10.541,15.4,15.4,0,0,1,4.09,10.708c0,15.33-9.311,18.722-18.189,19.686a9.577,9.577,0,0,1,2.727,7.349v10.94c0,1.33.7,2.294,2.727,1.929A39.9,39.9,0,0,0,47.936,8Z" transform="translate(-7.986 -8)" fill-rule="evenodd"/></g></g></svg>