<svg xmlns="http://www.w3.org/2000/svg" xmlns:xlink="http://www.w3.org/1999/xlink" width="1200" height="671" viewBox="0 0 1200 671">
  <defs>
    <clipPath id="clip-HOME_11">
      <rect width="1200" height="671"/>
    </clipPath>
  </defs>
  <g id="HOME_11" data-name="HOME – 11" clip-path="url(#clip-HOME_11)">
    <rect width="1200" height="671" fill="#fff"/>
    <path id="Polygon_9" data-name="Polygon 9" d="M32.147,0,64.294,55.8H0Z" transform="translate(913.832 246.599) rotate(158)" fill="#e3e3e3" opacity="0.643"/>
    <path id="Polygon_10" data-name="Polygon 10" d="M22.386,0,44.773,38.859H0Z" transform="translate(720.758 565.054) rotate(-137)" fill="#e3e3e3" opacity="0.747"/>
    <path id="Polygon_11" data-name="Polygon 11" d="M27.514,0,55.028,47.761H0Z" transform="translate(541.741 148.36) rotate(-140)" fill="#e3e3e3" opacity="0.566"/>
    <circle id="Ellipse_28" data-name="Ellipse 28" cx="17.283" cy="17.283" r="17.283" transform="matrix(0.819, 0.574, -0.574, 0.819, 759.956, 364.84)" fill="#e3e3e3" opacity="0.647"/>
    <circle id="Ellipse_29" data-name="Ellipse 29" cx="24.468" cy="24.468" r="24.468" transform="translate(320.132 427.048) rotate(-166)" fill="#e3e3e3" opacity="0.697"/>
    <circle id="Ellipse_30" data-name="Ellipse 30" cx="24.259" cy="24.259" r="24.259" transform="matrix(-0.809, -0.588, 0.588, -0.809, 183.252, 262.206)" fill="#e3e3e3" opacity="0.473"/>
    <rect id="Rectangle_175" data-name="Rectangle 175" width="52.864" height="52.864" transform="matrix(-0.035, -0.999, 0.999, -0.035, 1002.368, 567.062)" fill="#e3e3e3" opacity="0.947"/>
    <rect id="Rectangle_176" data-name="Rectangle 176" width="36.174" height="36.174" transform="translate(1010.013 382.891) rotate(120)" fill="#e3e3e3" opacity="0.444"/>
    <rect id="Rectangle_177" data-name="Rectangle 177" width="48.477" height="48.477" transform="matrix(0.966, 0.259, -0.259, 0.966, 342.836, 555.227)" fill="#e3e3e3" opacity="0.432"/>
  </g>
</svg>
