<svg xmlns="http://www.w3.org/2000/svg" xmlns:xlink="http://www.w3.org/1999/xlink" width="80" height="80" viewBox="0 0 80 80"><defs><clipPath id="b"><rect width="80" height="80"/></clipPath></defs><g id="a" clip-path="url(#b)"><rect width="80" height="80" fill="#fff"/><path d="M51.2,11.2c-10.863,0-12.227.048-16.493.242A29.348,29.348,0,0,0,25,13.3,20.462,20.462,0,0,0,13.3,25a29.218,29.218,0,0,0-1.858,9.708C11.25,38.972,11.2,40.337,11.2,51.2s.048,12.222.242,16.489A29.4,29.4,0,0,0,13.3,77.4,20.469,20.469,0,0,0,25,89.1a29.38,29.38,0,0,0,9.71,1.858c4.267.194,5.629.242,16.492.242s12.223-.048,16.49-.242A29.4,29.4,0,0,0,77.4,89.1,20.495,20.495,0,0,0,89.1,77.4a29.645,29.645,0,0,0,1.858-9.708c.192-4.267.242-5.627.242-16.49s-.05-12.227-.242-16.493A29.631,29.631,0,0,0,89.1,25a19.63,19.63,0,0,0-4.617-7.086A19.547,19.547,0,0,0,77.4,13.3a29.442,29.442,0,0,0-9.717-1.858c-4.267-.194-5.625-.242-16.492-.242Zm-1.334,7.208H51.2c10.68,0,11.946.038,16.163.23a22.15,22.15,0,0,1,7.427,1.377,13.256,13.256,0,0,1,7.59,7.592,22.1,22.1,0,0,1,1.378,7.425c.192,4.217.233,5.483.233,16.159s-.042,11.941-.233,16.158a22.127,22.127,0,0,1-1.378,7.425,13.266,13.266,0,0,1-7.59,7.587,22.063,22.063,0,0,1-7.427,1.378c-4.217.192-5.483.233-16.163.233s-11.947-.042-16.163-.233a22.188,22.188,0,0,1-7.427-1.379,13.252,13.252,0,0,1-7.593-7.589,22.1,22.1,0,0,1-1.377-7.425c-.192-4.217-.23-5.483-.23-16.165s.038-11.942.23-16.159A22.139,22.139,0,0,1,20.019,27.6,13.255,13.255,0,0,1,27.613,20a22.1,22.1,0,0,1,7.427-1.379c3.69-.167,5.12-.217,12.575-.225v.01ZM67.755,29.848a4.8,4.8,0,0,1,4.8-4.8v0a4.8,4.8,0,1,1-4.8,4.8Zm-16.553.81A20.54,20.54,0,1,0,71.742,51.2,20.542,20.542,0,0,0,51.2,30.658ZM64.537,51.2A13.333,13.333,0,1,0,51.2,64.533,13.333,13.333,0,0,0,64.537,51.2Z" transform="translate(-11.2 -11.2)" fill-rule="evenodd" opacity="0"/><path d="M51.2,11.2c-10.863,0-12.227.048-16.493.242A29.348,29.348,0,0,0,25,13.3,20.462,20.462,0,0,0,13.3,25a29.218,29.218,0,0,0-1.858,9.708C11.25,38.972,11.2,40.337,11.2,51.2s.048,12.222.242,16.489A29.4,29.4,0,0,0,13.3,77.4,20.469,20.469,0,0,0,25,89.1a29.38,29.38,0,0,0,9.71,1.858c4.267.194,5.629.242,16.492.242s12.223-.048,16.49-.242A29.4,29.4,0,0,0,77.4,89.1,20.495,20.495,0,0,0,89.1,77.4a29.645,29.645,0,0,0,1.858-9.708c.192-4.267.242-5.627.242-16.49s-.05-12.227-.242-16.493A29.631,29.631,0,0,0,89.1,25a19.63,19.63,0,0,0-4.617-7.086A19.547,19.547,0,0,0,77.4,13.3a29.442,29.442,0,0,0-9.717-1.858c-4.267-.194-5.625-.242-16.492-.242Zm-1.334,7.208H51.2c10.68,0,11.946.038,16.163.23a22.15,22.15,0,0,1,7.427,1.377,13.256,13.256,0,0,1,7.59,7.592,22.1,22.1,0,0,1,1.378,7.425c.192,4.217.233,5.483.233,16.159s-.042,11.941-.233,16.158a22.127,22.127,0,0,1-1.378,7.425,13.266,13.266,0,0,1-7.59,7.587,22.063,22.063,0,0,1-7.427,1.378c-4.217.192-5.483.233-16.163.233s-11.947-.042-16.163-.233a22.188,22.188,0,0,1-7.427-1.379,13.252,13.252,0,0,1-7.593-7.589,22.1,22.1,0,0,1-1.377-7.425c-.192-4.217-.23-5.483-.23-16.165s.038-11.942.23-16.159A22.139,22.139,0,0,1,20.019,27.6,13.255,13.255,0,0,1,27.613,20a22.1,22.1,0,0,1,7.427-1.379c3.69-.167,5.12-.217,12.575-.225v.01ZM67.755,29.848a4.8,4.8,0,0,1,4.8-4.8v0a4.8,4.8,0,1,1-4.8,4.8Zm-16.553.81A20.54,20.54,0,1,0,71.742,51.2,20.542,20.542,0,0,0,51.2,30.658ZM64.537,51.2A13.333,13.333,0,1,0,51.2,64.533,13.333,13.333,0,0,0,64.537,51.2Z" transform="translate(-11.2 -11.2)" fill-rule="evenodd"/></g></svg>