<svg xmlns="http://www.w3.org/2000/svg" xmlns:xlink="http://www.w3.org/1999/xlink" width="124" height="124" viewBox="0 0 124 124"><defs><clipPath id="b"><rect width="124" height="124"/></clipPath></defs><g id="a" clip-path="url(#b)"><g transform="translate(0 1.548)"><path d="M102.042,120.9H21.959A21.94,21.94,0,0,1,0,98.942V21.96A21.942,21.942,0,0,1,21.959,0h80.083A21.94,21.94,0,0,1,124,21.96V98.942A21.938,21.938,0,0,1,102.042,120.9ZM82.721,44.125c-.472,0-.674.215-.674.721V84.631a.722.722,0,0,0,.773.826h10.13c.464,0,.671-.255.671-.826V44.846c0-.479-.226-.721-.671-.721ZM40.715,72.333h19.22l4.235,12.3a.787.787,0,0,0,.736.573A.487.487,0,0,0,65,85.2H75.8a.579.579,0,0,0,.49-.172.758.758,0,0,0,.025-.655L57.453,31.154c-.053-.273-.279-.412-.67-.412H43.4a.543.543,0,0,0-.323.206.449.449,0,0,0-.089.361,17.822,17.822,0,0,1-.312,3.359c-.155.468-.28.9-.4,1.314l-.114.391L25.524,84.269a.869.869,0,0,0,.044.742.624.624,0,0,0,.523.188h9.715a.9.9,0,0,0,.982-.724l3.926-12.141Zm47.117-32.55h0c.107.006.231.013.355.013a6.03,6.03,0,0,0,4.348-1.821,6.511,6.511,0,0,0,1.809-4.753,6.55,6.55,0,0,0-1.706-4.6,6.221,6.221,0,0,0-4.7-1.809,6.608,6.608,0,0,0-4.6,1.809,6.121,6.121,0,0,0-1.859,4.6,6.674,6.674,0,0,0,1.756,4.753,6.357,6.357,0,0,0,4.41,1.812Zm-31,22.063H43.712c.826-2.315,1.592-4.748,2.274-7.232.494-1.544.973-3.1,1.437-4.61l.006-.021.034-.11c.3-.959.6-1.951.9-2.906A62.844,62.844,0,0,0,50.118,40.3h.1c.21.721.419,1.469.639,2.262.15.539.32,1.15.5,1.768.365,1.319.8,2.737,1.4,4.6.255.793.5,1.581.738,2.344.218.7.489,1.57.759,2.408.514,1.718.97,3.172,1.394,4.445.46,1.321.872,2.608,1.191,3.72Z" transform="translate(-0.001 0.001)" fill="#44adff"/></g></g></svg>