<svg xmlns="http://www.w3.org/2000/svg" xmlns:xlink="http://www.w3.org/1999/xlink" width="124" height="124" viewBox="0 0 124 124"><defs><clipPath id="b"><rect width="124" height="124"/></clipPath></defs><g id="a" clip-path="url(#b)"><path d="M-27.119,12630.882H-150V12508H-27.119v122.88Zm-40.341-26.874h0l-9.4,5.44c2.23,4.406,7.926,11.8,21.02,11.8,11.627,0,19.14-6.312,19.14-16.081,0-9.677-5.624-13.982-15.339-18.15l-2.888-1.239a20.249,20.249,0,0,1-5.4-3.009,4.994,4.994,0,0,1-1.689-4c0-2.913,2.273-4.948,5.528-4.948,3.313,0,5.463,1.434,7.421,4.948l8.99-5.77c-3.624-6.39-8.685-9.24-16.411-9.24-9.955,0-16.908,6.275-16.908,15.26,0,10.1,6.661,14.332,13.859,17.4l2.891,1.24c5.244,2.294,8.41,3.679,8.41,7.671a5.009,5.009,0,0,1-2.127,4.083,9.53,9.53,0,0,1-5.712,1.607,11.811,11.811,0,0,1-6.894-1.99,15.859,15.859,0,0,1-4.486-5.022Zm-40.832.992h0l-9.4,5.69c2.268,4.812,7.114,10.55,17.321,10.55,11.116,0,17.238-6.18,17.238-17.4v-39.431H-94.68v39.27c0,2.756-.547,4.653-1.674,5.8-.981,1-2.416,1.463-4.517,1.463a6.163,6.163,0,0,1-4.516-1.764,17.464,17.464,0,0,1-2.9-4.177Z" transform="translate(150 -12508)" fill="#44adff"/></g></svg>