<svg xmlns="http://www.w3.org/2000/svg" xmlns:xlink="http://www.w3.org/1999/xlink" width="80" height="80" viewBox="0 0 80 80"><defs><clipPath id="b"><rect width="80" height="80"/></clipPath></defs><g id="a" clip-path="url(#b)"><rect width="80" height="80" fill="#fff"/><path d="M137.6,64H70.835C67.188,64,64,66.626,64,70.231v66.913A7.039,7.039,0,0,0,70.835,144h66.746A6.682,6.682,0,0,0,144,137.144V70.231A6.134,6.134,0,0,0,137.6,64ZM88.8,130.684H77.337V95.05H88.8ZM83.463,89.632H83.38a6.148,6.148,0,0,1,.146-12.295c3.751,0,6.043,2.647,6.127,6.147A5.918,5.918,0,0,1,83.463,89.632Zm47.221,41.052H119.223V111.2c0-4.668-1.667-7.856-5.814-7.856a6.271,6.271,0,0,0-5.877,4.23,7.717,7.717,0,0,0-.4,2.813v20.3H95.675V95.05h11.461v4.96c1.667-2.376,4.272-5.793,10.336-5.793,7.523,0,13.212,4.96,13.212,15.65Z" transform="translate(-64 -64)" opacity="0"/><path d="M137.6,64H70.835C67.188,64,64,66.626,64,70.231v66.913A7.039,7.039,0,0,0,70.835,144h66.746A6.682,6.682,0,0,0,144,137.144V70.231A6.134,6.134,0,0,0,137.6,64ZM88.8,130.684H77.337V95.05H88.8ZM83.463,89.632H83.38a6.148,6.148,0,0,1,.146-12.295c3.751,0,6.043,2.647,6.127,6.147A5.918,5.918,0,0,1,83.463,89.632Zm47.221,41.052H119.223V111.2c0-4.668-1.667-7.856-5.814-7.856a6.271,6.271,0,0,0-5.877,4.23,7.717,7.717,0,0,0-.4,2.813v20.3H95.675V95.05h11.461v4.96c1.667-2.376,4.272-5.793,10.336-5.793,7.523,0,13.212,4.96,13.212,15.65Z" transform="translate(-64 -64)"/></g></svg>