<svg xmlns="http://www.w3.org/2000/svg" xmlns:xlink="http://www.w3.org/1999/xlink" width="124" height="124" viewBox="0 0 124 124"><defs><clipPath id="b"><rect width="124" height="124"/></clipPath></defs><g id="a" clip-path="url(#b)"><g transform="translate(1.228 0.558)"><path d="M79.8,12280.093c-7.749-2.28-14.66-6.96-14.66-14.9v-27.911a14.953,14.953,0,0,1,14.66-14.9h29.28c9.75,0,18.31-8.5,18.31-18.591v-13h11c8.529,0,12.549,6.381,14.657,14.86,2.931,11.781,3.061,20.609,0,29.792-2.968,8.918-6.14,14.861-14.657,14.861H94.456v3.717h29.29v11.171c0,8.462-7.281,12.759-14.66,14.9a52.359,52.359,0,0,1-14.734,2.235A50.814,50.814,0,0,1,79.8,12280.093Zm25.618-13.06a5.5,5.5,0,1,0,5.5-5.57A5.559,5.559,0,0,0,105.423,12267.033Zm-54.008-16.751c-8.52,0-13.5-6.18-15.582-14.86-2.808-11.661-2.688-18.621,0-29.789,2.33-9.74,9.79-14.86,18.31-14.86H94.465v-3.721H65.145v-11.171c0-8.458,2.25-13.048,14.651-15.239a82.771,82.771,0,0,1,14.01-1.2,92.049,92.049,0,0,1,15.28,1.2c7.783,1.3,14.361,7.037,14.651,14.716v28.987a14.764,14.764,0,0,1-14.651,14.349H79.8A18.622,18.622,0,0,0,61.5,12236.9v13.381Zm21.041-76.25a5.5,5.5,0,1,0,5.5-5.6A5.529,5.529,0,0,0,72.456,12174.032Z" transform="translate(-33.765 -12159.442)" fill="#008fff" stroke="rgba(0,0,0,0)" stroke-miterlimit="10" stroke-width="1"/></g></g></svg>