<svg xmlns="http://www.w3.org/2000/svg" xmlns:xlink="http://www.w3.org/1999/xlink" width="124" height="124" viewBox="0 0 124 124"><defs><clipPath id="b"><rect width="124" height="124"/></clipPath></defs><g id="a" clip-path="url(#b)"><g transform="translate(0.002 11.001)"><path d="M105.78,52.89a25.345,25.345,0,0,0-11.14,2.59c-1.15-2.28-2.3-4.27-2.5-5.76a15.93,15.93,0,0,1-.22-4.85,38.577,38.577,0,0,1,1.46-5.23c-.02-.22-.26-1.27-2.74-1.3s-4.61.48-4.85,1.13a27.633,27.633,0,0,0-1.03,3.67c-.43,2.26-4.94,10.25-7.51,14.45a14.573,14.573,0,0,1-1.7-4.22,15.93,15.93,0,0,1-.22-4.85,38.577,38.577,0,0,1,1.46-5.23c-.02-.22-.26-1.27-2.74-1.3s-4.61.48-4.85,1.13-.5,2.18-1.03,3.67c-.5,1.49-6.5,14.83-8.06,18.31-.79,1.78-1.49,3.19-1.99,4.15s-.02.07-.07.17c-.43.82-.67,1.27-.67,1.27v.02c-.34.6-.7,1.18-.86,1.18a8.008,8.008,0,0,1,.05-3.82c.89-4.63,3.05-11.86,3.02-12.12,0-.12.41-1.39-1.39-2.04a2.183,2.183,0,0,0-2.52.43c-.14,0-.26.38-.26.38s1.94-8.14-3.72-8.14c-3.55,0-8.45,3.86-10.87,7.39l-8.26,4.51c-1.32.72-2.69,1.49-3.98,2.18l-.26-.29C21.46,53.08,8.76,47.9,9.29,38.06c.19-3.58,1.44-13.01,24.39-24.43,18.79-9.36,33.84-6.79,36.46-1.08,3.72,8.16-8.04,23.33-27.58,25.51-7.44.84-11.35-2.04-12.34-3.12-1.03-1.13-1.18-1.18-1.56-.96-.62.34-.24,1.34,0,1.94.58,1.51,2.98,4.2,7.06,5.54,3.58,1.18,12.31,1.82,22.87-2.26,11.83-4.58,21.07-17.31,18.36-27.94C74.19.45,56.24-3.11,39.27,2.92c-10.1,3.6-21.05,9.22-28.92,16.59C.99,28.24-.5,35.87.12,39.04c2.18,11.31,17.76,18.67,24,24.12-.31.17-.6.34-.86.48-3.12,1.54-15,7.75-17.98,14.33-3.36,7.44.53,12.8,3.12,13.52,8.02,2.23,16.23-1.78,20.67-8.38,4.42-6.6,3.89-15.17,1.85-19.08l-.07-.14,2.45-1.44c1.58-.94,3.14-1.8,4.51-2.54a29.887,29.887,0,0,0-1.61,8.16c-.34,4.22,1.39,9.7,3.67,11.86a4.047,4.047,0,0,0,2.95.96c2.64,0,3.84-2.18,5.16-4.8,1.63-3.19,3.07-6.89,3.07-6.89s-1.8,10.01,3.12,10.01c1.8,0,3.6-2.33,4.42-3.53v.02a2.378,2.378,0,0,0,.14-.24c.1-.15.2-.3.29-.46v-.05c.72-1.25,2.33-4.1,4.73-8.83,3.1-6.1,6.07-13.73,6.07-13.73A43.927,43.927,0,0,0,71,57.33a47.392,47.392,0,0,0,2.57,5.76c-.72,1.01-1.15,1.58-1.15,1.58l.02.02c-.58.77-1.22,1.58-1.9,2.4-2.45,2.93-5.38,6.26-5.76,7.22a1.971,1.971,0,0,0,.53,2.64,4.771,4.771,0,0,0,3.02.48,13.52,13.52,0,0,0,4.51-1.03,15.57,15.57,0,0,0,3.89-2.04,8.677,8.677,0,0,0,3.72-7.66,15.23,15.23,0,0,0-1.42-5.4c.22-.31.43-.62.65-.96A101.256,101.256,0,0,0,86.4,48.7a43.927,43.927,0,0,0,1.18,4.94,35.77,35.77,0,0,0,2.18,4.94,21.322,21.322,0,0,0-6.55,8.47c-1.42,4.08-.31,5.93,1.78,6.36a6.431,6.431,0,0,0,3.29-.67,14.688,14.688,0,0,0,4.15-2.14c2.4-1.78,4.7-4.25,4.58-7.58a14.522,14.522,0,0,0-1.03-4.49,23.348,23.348,0,0,1,11.9-1.37c10.68,1.25,12.79,7.92,12.39,10.7a7.2,7.2,0,0,1-3.38,4.8c-.74.46-.98.62-.91.96.1.5.43.48,1.08.38a8.3,8.3,0,0,0,5.81-7.42c.29-6.56-5.98-13.76-17.09-13.69ZM23.41,80.66c-3.53,3.86-8.5,5.33-10.61,4.08-2.28-1.32-1.39-7.01,2.95-11.11a56.321,56.321,0,0,1,8.33-6.22c.5-.31,1.27-.77,2.18-1.32a1.282,1.282,0,0,1,.24-.14c.17-.1.36-.22.55-.34a15.3,15.3,0,0,1-3.64,15.05Zm25.8-17.54c-1.22,3-3.82,10.71-5.38,10.27-1.34-.36-2.16-6.19-.26-11.95a26.651,26.651,0,0,1,4.2-7.7c1.94-2.16,4.06-2.88,4.58-1.99.63,1.14-2.37,9.49-3.14,11.37ZM70.5,73.29c-.53.26-1.01.46-1.22.31-.17-.1.22-.46.22-.46s2.66-2.86,3.72-4.18c.6-.77,1.32-1.66,2.09-2.66v.29c-.01,3.46-3.32,5.77-4.81,6.7Zm16.42-3.74c-.38-.29-.34-1.18.96-3.96a14.835,14.835,0,0,1,3.65-4.7,6.049,6.049,0,0,1,.36,2.06c-.03,4.32-3.1,5.93-4.97,6.6Z" fill="#44adff" fill-rule="evenodd"/></g></g></svg>