<svg xmlns="http://www.w3.org/2000/svg" xmlns:xlink="http://www.w3.org/1999/xlink" width="634" height="634" viewBox="0 0 634 634">
  <defs>
    <clipPath id="clip-Artboard_1">
      <rect width="634" height="634"/>
    </clipPath>
  </defs>
  <g id="Artboard_1" data-name="Artboard – 1" clip-path="url(#clip-Artboard_1)">
    <path id="Path_30" data-name="Path 30" d="M281.947,103.711c-98.281,0-178.236,79.955-178.236,178.237s79.955,178.236,178.236,178.236,178.228-79.955,178.228-178.237S380.22,103.711,281.947,103.711Zm0,302A123.763,123.763,0,1,1,405.7,281.948,123.9,123.9,0,0,1,281.947,405.71Zm0-324.732a27.233,27.233,0,0,0,27.237-27.237v-26a27.237,27.237,0,1,0-54.474,0v26A27.233,27.233,0,0,0,281.947,80.978ZM101.326,139.841a27.234,27.234,0,1,0,38.515-38.515L121.452,82.938a27.234,27.234,0,1,0-38.515,38.515ZM53.741,254.711h-26a27.237,27.237,0,0,0,0,54.474h26a27.237,27.237,0,1,0,0-54.474Zm47.585,169.344L82.937,442.444a27.234,27.234,0,1,0,38.515,38.515l18.389-18.389a27.234,27.234,0,0,0-38.515-38.515Zm180.621,58.863a27.233,27.233,0,0,0-27.237,27.237v26a27.237,27.237,0,1,0,54.474,0v-26A27.233,27.233,0,0,0,281.947,482.918ZM462.57,424.055a27.234,27.234,0,0,0-38.515,38.515l18.389,18.389a27.234,27.234,0,0,0,38.515-38.515Zm73.589-169.344H510.145a27.237,27.237,0,0,0,0,54.474h26.014a27.237,27.237,0,0,0,0-54.474ZM443.311,147.82a27.148,27.148,0,0,0,19.257-7.98l18.389-18.389a27.234,27.234,0,0,0-38.515-38.515l-18.388,18.389a27.237,27.237,0,0,0,19.257,46.494Z" transform="translate(35.052 35.052)" fill="#3e3e3e"/>
  </g>
</svg>
