<svg xmlns="http://www.w3.org/2000/svg" xmlns:xlink="http://www.w3.org/1999/xlink" width="124" height="124" viewBox="0 0 124 124"><defs><clipPath id="b"><rect width="124" height="124"/></clipPath></defs><g id="a" clip-path="url(#b)"><g transform="translate(0 1.55)"><path d="M137.041,12466.351H56.957A21.941,21.941,0,0,1,35,12444.391v-76.983a21.94,21.94,0,0,1,21.957-21.957h80.084a21.94,21.94,0,0,1,21.96,21.957v76.983a21.942,21.942,0,0,1-21.96,21.96Zm-10.59-77.656a26.263,26.263,0,0,0-13.071,3,21.431,21.431,0,0,0-8.216,8.01,21.2,21.2,0,0,0-2.841,10.9,22.5,22.5,0,0,0,2.841,11.779,17.942,17.942,0,0,0,7.8,7.023,25.722,25.722,0,0,0,10.747,2.328h.36a45.367,45.367,0,0,0,7.956-.724,39.6,39.6,0,0,0,8.422-2.48.839.839,0,0,0,.516-.826l-.016-.288c-.046-.816-.1-1.742-.19-2.709l-.021-.471c-.042-.942-.082-1.831-.082-2.63v-49.288a.474.474,0,0,0-.433-.372.4.4,0,0,0-.083.009H129.654c-.347,0-.516.186-.516.566v16.328c-.305-.025-.581-.039-.815-.05-.3-.015-.549-.028-.787-.054A9.035,9.035,0,0,0,126.45,12388.694Zm-72.437-12.246a.59.59,0,0,0-.516.21c-.1.1-.059.3.1.517l15.656,26.5-16.069,26.354a.7.7,0,0,0-.1.565.219.219,0,0,0,.034.143.108.108,0,0,0,.092.033c.027,0,.057,0,.09-.007h.012a1.1,1.1,0,0,1,.133-.01H64.813c.543,0,.975-.042,1.186-.57.791-1.408,1.6-2.888,2.373-4.319l.027-.049.1-.19c.35-.644.71-1.3,1.064-1.951,1.146-2.188,2.367-4.47,3.444-6.481l.069-.13c1.163-2.175,2.367-4.423,3.46-6.667h.1c1.252,2.292,2.541,4.6,3.678,6.642l.042.075c1.005,1.8,2.313,4.162,3.513,6.511.546,1.091,1.109,2.178,1.653,3.229l.033.063c.535,1.033,1.089,2.1,1.621,3.165.372.528.963.569,1.758.569h11.833a.763.763,0,0,1,.141-.014,1.254,1.254,0,0,1,.153.011l.016,0,.016,0c.035,0,.064.006.092.006a.13.13,0,0,0,.148-.11.9.9,0,0,0-.1-.622L84.7,12402.8l15.5-25.576a.589.589,0,0,0,.168-.318.055.055,0,0,0-.014-.041.47.47,0,0,0-.465-.374.527.527,0,0,0-.1.011h-10.9a.968.968,0,0,0-.2-.021,1.021,1.021,0,0,0-.472.125.874.874,0,0,0-.313.516c-.463.862-.931,1.754-1.384,2.615-.638,1.214-1.361,2.589-2.076,3.9l-.133.242-.056.1c-1.106,2.021-2.249,4.11-3.324,6.166-.944,1.8-2.178,4.188-3.357,6.664h-.1c-1.132-2.317-2.265-4.463-3.463-6.56-1.1-1.849-2.093-3.639-3.146-5.533l-.574-1.032c-1.428-2.668-2.448-4.723-3.307-6.663a1.442,1.442,0,0,0-.516-.464,2.97,2.97,0,0,0-.723-.106Zm71.092,45.315a13.572,13.572,0,0,1-4.286-.673,8.868,8.868,0,0,1-3.513-2.067,10.1,10.1,0,0,1-2.325-3.667,14.306,14.306,0,0,1-.879-5.322,10.659,10.659,0,0,1,6.1-10.387,12.82,12.82,0,0,1,5.838-1.342c.546,0,1.073.044,1.705.1a12.354,12.354,0,0,1,1.4.26v22.733a4.72,4.72,0,0,1-1.533.272c-.1,0-.208,0-.329-.013h-.016C126.616,12421.71,125.885,12421.764,125.105,12421.764Z" transform="translate(-35 -12345.45)" fill="#008fff"/></g></g></svg>